# xmcd CD database file
#
# Track frame offsets:
#	150
#	20532
#	49717
#	83317
#	108972
#	139855
#	176600
#	201190
#	238457
#	274645
#
# Disc length: 4061 seconds
#
# Revision: 0
# Processed by: cddbd v1.5PL3 Copyright (c) Steve Scherf et al.
# Submitted via: CDex 1.50
#
DISCID=820fdb0a
DTITLE=Jimmy Scott - Unchained Melody
DYEAR=1900
DGENRE=Jazz
TTITLE0=All Of Me
TTITLE1=Imagination
TTITLE2=Unchained Melody
TTITLE3=Bye Bye Blackbird
TTITLE4=Day By Day
TTITLE5=Jealous Guy
TTITLE6=All Or Nothing At All
TTITLE7=sometimes I Feel Like A Motherless Child
TTITLE8=I Cried For You
TTITLE9=Everybodys Somebodys Fool
EXTD=
EXTT0=
EXTT1=
EXTT2=
EXTT3=
EXTT4=
EXTT5=
EXTT6=
EXTT7=
EXTT8=
EXTT9=
PLAYORDER=
